<?xml version="1.0" encoding="UTF-8"?>
<svg version="1.1" xmlns="http://www.w3.org/2000/svg" width="531" height="354">
<path d="M0 0 C0.66322266 0.21720703 1.32644531 0.43441406 2.00976562 0.65820312 C5.11191383 1.69850056 7.5717686 2.73534573 10.3125 4.5625 C11.69942678 4.85794002 13.09737212 5.10396771 14.5 5.3125 C18.22717477 6.04718349 20.19339877 7.0905907 23 9.625 C26.65381939 12.64934952 29.23498049 12.90563506 33.9375 13 C41.29929486 13.1901863 45.95199813 15.38136659 52.25390625 18.87109375 C54.9045851 20.33692254 57.49716425 21.46793004 60.3125 22.5625 C60.6425 22.8925 60.9725 23.2225 61.3125 23.5625 C63.26850715 23.81073944 65.22750019 24.03555296 67.1875 24.25 C74.01122279 25.25061205 79.79081098 27.35837248 85.3125 31.5625 C85.76302734 32.63177734 85.76302734 32.63177734 86.22265625 33.72265625 C86.58230469 34.32980469 86.94195312 34.93695313 87.3125 35.5625 C90.2234694 36.15826473 90.2234694 36.15826473 93.5625 36.125 C98.56309797 36.36207355 102.05329028 36.72302685 106.3125 39.5625 C107.488125 40.3359375 107.488125 40.3359375 108.6875 41.125 C109.22375 41.599375 109.76 42.07375 110.3125 42.5625 C110.3125 43.2225 110.3125 43.8825 110.3125 44.5625 C111.92125 44.995625 111.92125 44.995625 113.5625 45.4375 C119.00477618 47.07018285 121.38696958 48.15416203 124.375 53.0625 C127.22234165 57.7149203 129.7552725 59.54267383 135 61 C136.7778873 61.49622054 138.5479228 62.02084943 140.3125 62.5625 C140.95993164 62.72250488 141.60736328 62.88250977 142.27441406 63.04736328 C146.380492 64.24743962 148.6431033 65.39097209 150.7734375 69.1875 C151.44280455 70.63171413 152.07994716 72.09121273 152.6875 73.5625 C153.02491211 74.32272461 153.36232422 75.08294922 153.70996094 75.86621094 C155.89769082 80.98536877 157.15701103 85.88592743 157.921875 91.40625 C158.87434297 96.66387318 162.81435908 99.03335108 166.875 102 C173.78652034 106.6584256 180.63481017 110.99193248 188.75 113.125 C193.04981141 114.2834278 194.99642153 115.60586594 197.3125 119.5625 C197.663125 120.15160156 198.01375 120.74070312 198.375 121.34765625 C200.28112012 125.85086504 200.07445992 130.79690854 199.3125 135.5625 C196.6875 138.125 196.6875 138.125 193.3125 139.5625 C188.36767711 141.87008402 184.46408856 144.68798082 180.265625 148.13671875 C178.3125 149.5625 178.3125 149.5625 176.3125 149.5625 C176.044375 150.160625 175.77625 150.75875 175.5 151.375 C174.31332594 153.56097854 173.21650887 154.97582594 171.3125 156.5625 C170.6525 156.5625 169.9925 156.5625 169.3125 156.5625 C169.22355469 157.27664062 169.13460938 157.99078125 169.04296875 158.7265625 C167.65377564 164.11990047 163.68133426 168.22582385 160.3125 172.5625 C159.76722656 173.28824219 159.22195313 174.01398438 158.66015625 174.76171875 C157.93119141 175.68404297 157.93119141 175.68404297 157.1875 176.625 C156.77242188 177.15222656 156.35734375 177.67945313 155.9296875 178.22265625 C151.69791858 181.72868702 146.58438663 181.83562231 141.3125 181.8125 C140.136875 181.81765625 138.96125 181.8228125 137.75 181.828125 C134.28147174 181.56010236 131.56442607 180.75177582 128.3125 179.5625 C125.64415034 179.22751699 125.64415034 179.22751699 123.3125 179.5625 C121.04377017 181.48285512 121.04377017 181.48285512 120.5625 184.6875 C118.92844437 190.88653644 114.61692043 196.07328048 109.3125 199.5625 C107.375 200.3359375 107.375 200.3359375 105.3125 200.9375 C98.94245083 202.94191416 92.31310912 205.2251086 86.53198242 208.6027832 C80.88223075 211.8231488 76.17297262 212.08130533 69.75 211.875 C68.84314453 211.86533203 67.93628906 211.85566406 67.00195312 211.84570312 C63.0321488 211.77949174 59.18175207 211.60263633 55.26171875 210.95703125 C54.28847656 210.82683594 53.31523437 210.69664062 52.3125 210.5625 C50.64583333 211.89583333 50.64583333 211.89583333 49.3125 213.5625 C48.52875 213.645 47.745 213.7275 46.9375 213.8125 C43.83219722 214.69972937 43.6092538 215.30888711 41.9375 217.9375 C39.392182 221.87993261 36.69857299 222.88781759 32.3125 224.5625 C29.41339553 226.99147942 27.93806969 229.20298931 26.3125 232.5625 C25.60673828 233.25279297 25.60673828 233.25279297 24.88671875 233.95703125 C20.28320843 238.65192639 19.03663205 244.23673209 18.58984375 250.58984375 C18.22049586 253.21689565 17.04992408 254.6078979 15.3125 256.5625 C15.19841797 257.55056641 15.19841797 257.55056641 15.08203125 258.55859375 C14.82808594 259.21988281 14.57414062 259.88117188 14.3125 260.5625 C11.73046875 261.546875 11.73046875 261.546875 8.5 262.3125 C4.08104751 263.49118002 4.08104751 263.49118002 0.875 266.48828125 C0.30062249 267.89089062 -0.24608889 269.30521494 -0.76171875 270.73046875 C-2.42375078 274.01946885 -5.32354876 274.44118292 -8.6875 275.5625 C-10.95764539 277.36363577 -10.95764539 277.36363577 -10.69921875 279.875 C-10.59222656 280.761875 -10.48523438 281.64875 -10.375 282.5625 C-10.27574219 283.449375 -10.17648437 284.33625 -10.07421875 285.25 C-9.80078785 287.5805595 -9.80078785 287.5805595 -8.6875 289.5625 C-5.63407566 288.54469189 -3.91247522 287.81650428 -1.75 285.375 C-1.069375 284.776875 -0.38875 284.17875 0.3125 283.5625 C3.44140625 283.94921875 3.44140625 283.94921875 6.3125 284.5625 C6.5171785 287.7698796 6.64055321 290.97557177 6.75 294.1875 C6.83797852 295.54294922 6.83797852 295.54294922 6.92773438 296.92578125 C7.09552296 303.49350585 7.09552296 303.49350585 4.93408203 306.44433594 C3.14442878 308.03743767 1.35555123 309.31431766 -0.6875 310.5625 C-1.63238281 311.14902344 -2.57726562 311.73554688 -3.55078125 312.33984375 C-7.6105025 313.92227557 -11.57380712 314.53546099 -15.875 315.125 C-17.47362797 315.34862901 -19.0713527 315.57883828 -20.66796875 315.81640625 C-21.71827271 315.96057983 -21.71827271 315.96057983 -22.78979492 316.10766602 C-25.00125754 316.5221489 -25.00125754 316.5221489 -27.6875 318.5625 C-32.06786806 319.03521588 -36.47191848 318.93287248 -40.875 318.9375 C-42.08220703 318.96199219 -43.28941406 318.98648437 -44.53320312 319.01171875 C-51.71352876 319.03527367 -56.64181673 318.56116187 -62.6875 314.5625 C-64 312.125 -64 312.125 -63.6875 309.5625 C-61.16496809 306.14487613 -58.84859309 304.48291327 -54.875 303.25 C-50.28324249 301.75118104 -47.75079791 298.88873514 -44.4921875 295.43359375 C-41.1947282 292.01479936 -38.77750475 290.6940523 -34.0625 290.125 C-30.69314438 289.8585435 -30.69314438 289.8585435 -28.6875 287.875 C-27.31768879 284.70731157 -27.90248175 282.89882754 -28.6875 279.5625 C-29.90835451 273.86517893 -29.29149767 271.66199545 -26.6875 266.5625 C-26.28207301 263.49161143 -26.28207301 263.49161143 -27.6875 260.5625 C-29.62343442 258.86327372 -31.61070866 257.44668173 -33.77734375 256.0546875 C-35.92624077 254.37599903 -36.52269313 252.98681348 -37.6875 250.5625 C-39.29634906 249.03507036 -39.29634906 249.03507036 -41.125 247.6875 C-44.42384007 244.99526482 -45.8789319 242.43800307 -47.6875 238.5625 C-48.98894802 237.52134159 -50.31547869 236.50872159 -51.6875 235.5625 C-51.6875 234.9025 -51.6875 234.2425 -51.6875 233.5625 C-52.3475 233.5625 -53.0075 233.5625 -53.6875 233.5625 C-53.6875 232.9025 -53.6875 232.2425 -53.6875 231.5625 C-54.27402344 231.29953125 -54.86054688 231.0365625 -55.46484375 230.765625 C-61.15432907 227.6859036 -65.32865104 222.52900032 -67.6875 216.5625 C-67.6875 215.9025 -67.6875 215.2425 -67.6875 214.5625 C-68.27789062 214.47226563 -68.86828125 214.38203125 -69.4765625 214.2890625 C-72.25014741 213.37760173 -73.21843803 212.17981009 -75.0625 209.9375 C-75.66449219 209.215625 -76.26648438 208.49375 -76.88671875 207.75 C-77.48097656 207.028125 -78.07523438 206.30625 -78.6875 205.5625 C-79.74847989 204.35283171 -80.81087689 203.14440418 -81.875 201.9375 C-83.65968404 199.86782714 -85.05218155 197.97146438 -86.5 195.625 C-88.55053204 192.75425515 -90.45475716 190.9479531 -93.125 188.6875 C-96.16672066 186.10843588 -98.19818675 183.98693664 -100 180.4375 C-102.69113271 175.65326407 -106.8344584 174.18475399 -111.6953125 172.00390625 C-114.441494 170.68100681 -116.52747824 169.29355694 -118.875 167.375 C-122.2069658 164.70804193 -125.29528123 163.45492786 -129.4140625 162.3984375 C-131.6875 161.5625 -131.6875 161.5625 -134.48828125 159.49609375 C-139.28222531 156.59865503 -143.65539114 157.21948885 -149.12890625 157.32421875 C-152.6875 156.5625 -152.6875 156.5625 -153.96630859 155.09570312 C-154.75212443 153.84770132 -155.53261266 152.59633254 -156.30834961 151.34204102 C-158.83452026 148.0824804 -162.39835676 147.0295381 -166.1875 145.6875 C-166.97979004 145.39069336 -167.77208008 145.09388672 -168.58837891 144.78808594 C-174.42063355 142.71884201 -179.86769592 141.79598938 -186.0859375 141.828125 C-188.6875 141.5625 -188.6875 141.5625 -190.4921875 140.12890625 C-193.86711804 137.72081524 -197.37801272 137.63890631 -201.4375 137.25 C-202.27571289 137.16661377 -203.11392578 137.08322754 -203.97753906 136.99731445 C-212.88685755 136.25262737 -222.75212874 136.18379342 -230.9375 140.12890625 C-235.75290167 142.32527496 -240.74370916 141.92213147 -245.9375 141.8125 C-246.93007812 141.80734375 -247.92265625 141.8021875 -248.9453125 141.796875 C-256.22098214 141.71800595 -256.22098214 141.71800595 -259.6875 140.5625 C-261.08203125 138.234375 -261.08203125 138.234375 -262.5 135.3125 C-264.99317906 130.52313381 -267.43623491 127.92808486 -271.6875 124.5625 C-273.33444188 122.28242717 -274.82835348 119.95145918 -276.29296875 117.55078125 C-279.45707827 113.03948784 -284.05080627 112.66423543 -289.09375 111.5390625 C-292.1722608 110.37998464 -293.17822845 109.46733086 -294.6875 106.5625 C-294.734375 104.265625 -294.734375 104.265625 -294.4375 101.8125 C-294.28330577 97.44366357 -294.99884871 95.54999718 -297.9375 92.3125 C-298.54078125 91.72984375 -299.1440625 91.1471875 -299.765625 90.546875 C-304.61526806 85.53951997 -306.56415765 80.45375854 -308.25 73.875 C-309.82826438 67.59816649 -309.82826438 67.59816649 -313.6875 62.5625 C-314.71911608 60.57862292 -315.72273618 58.57973344 -316.6875 56.5625 C-317.0175 56.2325 -317.3475 55.9025 -317.6875 55.5625 C-317.85546875 53.6015625 -317.85546875 53.6015625 -317.875 51.1875 C-317.88917969 50.39601562 -317.90335937 49.60453125 -317.91796875 48.7890625 C-317.6875 46.5625 -317.6875 46.5625 -315.6875 43.5625 C-315.52036431 40.93718476 -315.52036431 40.93718476 -315.6875 38.5625 C-316.656875 38.10875 -317.62625 37.655 -318.625 37.1875 C-321.6875 35.5625 -321.6875 35.5625 -322.6875 33.5625 C-322.78215345 32.21092019 -322.81822162 30.85488852 -322.8203125 29.5 C-322.82160156 28.70335937 -322.82289063 27.90671875 -322.82421875 27.0859375 C-322.82035156 26.25320312 -322.81648438 25.42046875 -322.8125 24.5625 C-322.81830078 23.31339844 -322.81830078 23.31339844 -322.82421875 22.0390625 C-322.82292969 21.24242188 -322.82164062 20.44578125 -322.8203125 19.625 C-322.81918457 18.89410156 -322.81805664 18.16320312 -322.81689453 17.41015625 C-322.6875 15.5625 -322.6875 15.5625 -321.6875 13.5625 C-321.0275 13.5625 -320.3675 13.5625 -319.6875 13.5625 C-319.460625 12.94375 -319.23375 12.325 -319 11.6875 C-317.23251287 8.82585417 -315.91735688 8.42379517 -312.6875 7.5625 C-304.44511765 6.57341412 -296.50294945 10.15525396 -289.6875 14.5625 C-287.04487314 17.1140018 -286.70843892 18.27458986 -286.4375 22 C-286.64531374 24.96134576 -287.09126857 27.66651877 -287.6875 30.5625 C-286.19006881 32.05993119 -284.69925761 31.89452693 -282.625 32.125 C-281.325625 32.269375 -280.02625 32.41375 -278.6875 32.5625 C-278.6875 31.9025 -278.6875 31.2425 -278.6875 30.5625 C-277.800625 30.170625 -276.91375 29.77875 -276 29.375 C-272.52604022 27.47415408 -270.40271445 25.41695622 -267.6875 22.5625 C-264.88522622 19.90393257 -263.47370298 18.67481471 -259.625 18.125 C-256.6875 18.5625 -256.6875 18.5625 -255.01171875 19.99609375 C-251.7569631 22.18963496 -248.36603138 22.51344251 -244.5625 23.0625 C-234.64685227 24.67129544 -226.74919084 26.31057649 -218.6875 32.5625 C-215.36777154 33.66907615 -212.61831564 33.77644703 -209.125 33.9375 C-203.71506524 34.28257814 -199.09526105 35.12754939 -193.98828125 36.8828125 C-191.62143987 37.58201522 -189.52035983 37.79513674 -187.0625 37.9375 C-183.65360927 38.22256403 -181.73063141 38.97412729 -178.9375 40.9375 C-169.92390234 47.15130393 -158.16706158 47.02133622 -147.625 46.875 C-145.8315918 46.87983398 -145.8315918 46.87983398 -144.00195312 46.88476562 C-137.06592155 46.89280422 -137.06592155 46.89280422 -130.6875 44.5625 C-128.27172852 44.17114258 -128.27172852 44.17114258 -125.56640625 43.95703125 C-114.61549128 42.95020138 -104.22106929 41.60614462 -93.75 38.125 C-92.86320557 37.83665283 -91.97641113 37.54830566 -91.06274414 37.2512207 C-86.52473353 35.90130374 -86.52473353 35.90130374 -83.59155273 32.49975586 C-83.14404663 31.54081421 -83.14404663 31.54081421 -82.6875 30.5625 C-81.90375 30.294375 -81.12 30.02625 -80.3125 29.75 C-77.3080328 28.72317985 -77.3080328 28.72317985 -75.9375 25.0625 C-74.9765625 23.15625 -74.9765625 23.15625 -73.6875 21.5625 C-71.6484375 20.90625 -71.6484375 20.90625 -69.3125 20.5625 C-64.59429998 19.84251493 -63.20202869 18.29279249 -60.4140625 14.5703125 C-54.25288729 7.40550694 -45.07745274 2.24167908 -36 -0.0625 C-33.1868364 -0.78621844 -30.44451731 -1.51849423 -27.6875 -2.4375 C-25.42124965 -2.6908696 -23.14905981 -2.89297477 -20.875 -3.0625 C-19.67230469 -3.15789063 -18.46960938 -3.25328125 -17.23046875 -3.3515625 C-11.08141165 -3.50071273 -5.77770128 -1.96018946 0 0 Z " fill="#F56262" transform="translate(328.6875,20.4375)"/>
<path d="M0 0 C0.66322266 0.21720703 1.32644531 0.43441406 2.00976562 0.65820312 C5.11191383 1.69850056 7.5717686 2.73534573 10.3125 4.5625 C11.69942678 4.85794002 13.09737212 5.10396771 14.5 5.3125 C18.22717477 6.04718349 20.19339877 7.0905907 23 9.625 C26.65381939 12.64934952 29.23498049 12.90563506 33.9375 13 C41.29929486 13.1901863 45.95199813 15.38136659 52.25390625 18.87109375 C54.9045851 20.33692254 57.49716425 21.46793004 60.3125 22.5625 C60.6425 22.8925 60.9725 23.2225 61.3125 23.5625 C63.26850715 23.81073944 65.22750019 24.03555296 67.1875 24.25 C74.01122279 25.25061205 79.79081098 27.35837248 85.3125 31.5625 C85.60769531 32.2740625 85.90289062 32.985625 86.20703125 33.71875 C86.75423828 34.63140625 86.75423828 34.63140625 87.3125 35.5625 C90.35776072 36.1945064 90.35776072 36.1945064 93.8125 36.1875 C100.11887813 36.36887813 100.11887813 36.36887813 102.3125 38.5625 C88.50757223 38.52420616 88.50757223 38.52420616 84.0625 34.5625 C83.13722855 33.57045639 82.21872815 32.57196933 81.3125 31.5625 C80.6525 31.2325 79.9925 30.9025 79.3125 30.5625 C79.26351563 31.23796875 79.21453125 31.9134375 79.1640625 32.609375 C79.08929688 33.50140625 79.01453125 34.3934375 78.9375 35.3125 C78.86789062 36.19421875 78.79828125 37.0759375 78.7265625 37.984375 C78.31399945 40.55316382 77.60089043 42.32091015 76.3125 44.5625 C74.31295254 44.60504356 72.31208364 44.60330783 70.3125 44.5625 C69.9825 44.2325 69.6525 43.9025 69.3125 43.5625 C65.75344931 43.35769529 62.19611186 43.24281288 58.6328125 43.13671875 C56.98925781 42.85248047 56.98925781 42.85248047 55.3125 42.5625 C54.85875 41.8921875 54.405 41.221875 53.9375 40.53125 C52.53244344 38.39098339 52.53244344 38.39098339 50.45654297 38.2512207 C48.02343728 38.20399873 45.61857979 38.26500483 43.1875 38.375 C36.76396075 38.58270119 30.69355983 38.40346463 24.3125 37.5625 C24.003125 38.18125 23.69375 38.8 23.375 39.4375 C22.6875 40.8125 22 42.1875 21.3125 43.5625 C19.8584375 43.93375 19.8584375 43.93375 18.375 44.3125 C15.00770182 45.2729212 15.00770182 45.2729212 13.9375 48.6875 C13.73125 49.63625 13.525 50.585 13.3125 51.5625 C12.6525 51.5625 11.9925 51.5625 11.3125 51.5625 C11.27511719 52.21476562 11.23773438 52.86703125 11.19921875 53.5390625 C10.79566295 58.90398072 10.11411717 62.85578316 7.3125 67.5625 C7.05597656 68.20703125 6.79945313 68.8515625 6.53515625 69.515625 C4.88561338 72.27716003 2.94249611 73.30292014 0.1875 74.9375 C-3.35522105 77.08530351 -6.66158704 79.26210556 -9.875 81.875 C-15.64418639 86.24841549 -21.30403362 86.56360906 -28.3125 86.9375 C-33.70336204 87.28988433 -36.34321188 88.25706339 -40.6875 91.5625 C-43.42886359 92.69418065 -46.19924246 93.67007685 -49.00390625 94.6328125 C-51.66277441 95.50112354 -51.66277441 95.50112354 -54.0078125 96.65234375 C-57.64189986 97.88666205 -61.20254181 97.90076618 -65 98 C-71.18163338 98.24655526 -76.00930859 98.95053195 -81.6875 101.5625 C-82.6775 101.5625 -83.6675 101.5625 -84.6875 101.5625 C-84.6875 102.2225 -84.6875 102.8825 -84.6875 103.5625 C-85.739375 103.995625 -86.79125 104.42875 -87.875 104.875 C-90.09865279 105.82038532 -92.00976172 106.76603372 -94.0625 108.0625 C-96.50356466 109.45739409 -98.57722246 110.19337056 -101.25 111 C-105.01800537 112.2185092 -107.30428146 113.26265894 -109.6875 116.5625 C-110.73797644 118.87354818 -111.73757438 121.20833651 -112.6875 123.5625 C-113.21424316 124.33795166 -113.74098633 125.11340332 -114.28369141 125.91235352 C-115.99024249 129.13402518 -115.90055651 130.92169654 -115.5859375 134.52734375 C-115.50859375 135.65720703 -115.43125 136.78707031 -115.3515625 137.95117188 C-115.15911763 140.31382275 -114.95861649 142.67583147 -114.75 145.03710938 C-114.110107 154.71824911 -114.110107 154.71824911 -117.0390625 158.37890625 C-119.6875 160.5625 -119.6875 160.5625 -121.6875 160.5625 C-120.6975 163.0375 -120.6975 163.0375 -119.6875 165.5625 C-124.73878018 164.28932897 -129.19085778 163.12409838 -133.375 159.9375 C-138.19709524 156.57784348 -143.55808521 157.1392469 -149.19921875 157.2890625 C-152.6875 156.5625 -152.6875 156.5625 -153.95751953 155.10009766 C-154.74440595 153.85111908 -155.52636829 152.59902771 -156.30395508 151.34423828 C-158.83476047 148.08505039 -162.39550529 147.03054803 -166.1875 145.6875 C-166.97979004 145.39069336 -167.77208008 145.09388672 -168.58837891 144.78808594 C-174.42063355 142.71884201 -179.86769592 141.79598938 -186.0859375 141.828125 C-188.6875 141.5625 -188.6875 141.5625 -190.4921875 140.12890625 C-193.86711804 137.72081524 -197.37801272 137.63890631 -201.4375 137.25 C-202.27571289 137.16661377 -203.11392578 137.08322754 -203.97753906 136.99731445 C-212.88685755 136.25262737 -222.75212874 136.18379342 -230.9375 140.12890625 C-235.75290167 142.32527496 -240.74370916 141.92213147 -245.9375 141.8125 C-246.93007812 141.80734375 -247.92265625 141.8021875 -248.9453125 141.796875 C-256.22098214 141.71800595 -256.22098214 141.71800595 -259.6875 140.5625 C-261.08203125 138.234375 -261.08203125 138.234375 -262.5 135.3125 C-264.99317906 130.52313381 -267.43623491 127.92808486 -271.6875 124.5625 C-273.33444188 122.28242717 -274.82835348 119.95145918 -276.29296875 117.55078125 C-279.45707827 113.03948784 -284.05080627 112.66423543 -289.09375 111.5390625 C-292.1722608 110.37998464 -293.17822845 109.46733086 -294.6875 106.5625 C-294.734375 104.265625 -294.734375 104.265625 -294.4375 101.8125 C-294.28330577 97.44366357 -294.99884871 95.54999718 -297.9375 92.3125 C-298.54078125 91.72984375 -299.1440625 91.1471875 -299.765625 90.546875 C-304.61526806 85.53951997 -306.56415765 80.45375854 -308.25 73.875 C-309.82826438 67.59816649 -309.82826438 67.59816649 -313.6875 62.5625 C-314.71911608 60.57862292 -315.72273618 58.57973344 -316.6875 56.5625 C-317.0175 56.2325 -317.3475 55.9025 -317.6875 55.5625 C-317.85546875 53.6015625 -317.85546875 53.6015625 -317.875 51.1875 C-317.88917969 50.39601562 -317.90335937 49.60453125 -317.91796875 48.7890625 C-317.6875 46.5625 -317.6875 46.5625 -315.6875 43.5625 C-315.52036431 40.93718476 -315.52036431 40.93718476 -315.6875 38.5625 C-316.656875 38.10875 -317.62625 37.655 -318.625 37.1875 C-321.6875 35.5625 -321.6875 35.5625 -322.6875 33.5625 C-322.78215345 32.21092019 -322.81822162 30.85488852 -322.8203125 29.5 C-322.82160156 28.70335937 -322.82289063 27.90671875 -322.82421875 27.0859375 C-322.82035156 26.25320312 -322.81648438 25.42046875 -322.8125 24.5625 C-322.81830078 23.31339844 -322.81830078 23.31339844 -322.82421875 22.0390625 C-322.82292969 21.24242188 -322.82164062 20.44578125 -322.8203125 19.625 C-322.81918457 18.89410156 -322.81805664 18.16320312 -322.81689453 17.41015625 C-322.6875 15.5625 -322.6875 15.5625 -321.6875 13.5625 C-321.0275 13.5625 -320.3675 13.5625 -319.6875 13.5625 C-319.460625 12.94375 -319.23375 12.325 -319 11.6875 C-317.23251287 8.82585417 -315.91735688 8.42379517 -312.6875 7.5625 C-304.44511765 6.57341412 -296.50294945 10.15525396 -289.6875 14.5625 C-287.04487314 17.1140018 -286.70843892 18.27458986 -286.4375 22 C-286.64531374 24.96134576 -287.09126857 27.66651877 -287.6875 30.5625 C-286.19006881 32.05993119 -284.69925761 31.89452693 -282.625 32.125 C-281.325625 32.269375 -280.02625 32.41375 -278.6875 32.5625 C-278.6875 31.9025 -278.6875 31.2425 -278.6875 30.5625 C-277.800625 30.170625 -276.91375 29.77875 -276 29.375 C-272.52604022 27.47415408 -270.40271445 25.41695622 -267.6875 22.5625 C-264.88522622 19.90393257 -263.47370298 18.67481471 -259.625 18.125 C-256.6875 18.5625 -256.6875 18.5625 -255.01171875 19.99609375 C-251.7569631 22.18963496 -248.36603138 22.51344251 -244.5625 23.0625 C-234.64685227 24.67129544 -226.74919084 26.31057649 -218.6875 32.5625 C-215.36777154 33.66907615 -212.61831564 33.77644703 -209.125 33.9375 C-203.71506524 34.28257814 -199.09526105 35.12754939 -193.98828125 36.8828125 C-191.62143987 37.58201522 -189.52035983 37.79513674 -187.0625 37.9375 C-183.65360927 38.22256403 -181.73063141 38.97412729 -178.9375 40.9375 C-169.92390234 47.15130393 -158.16706158 47.02133622 -147.625 46.875 C-145.8315918 46.87983398 -145.8315918 46.87983398 -144.00195312 46.88476562 C-137.06592155 46.89280422 -137.06592155 46.89280422 -130.6875 44.5625 C-128.27172852 44.17114258 -128.27172852 44.17114258 -125.56640625 43.95703125 C-114.61549128 42.95020138 -104.22106929 41.60614462 -93.75 38.125 C-92.86320557 37.83665283 -91.97641113 37.54830566 -91.06274414 37.2512207 C-86.52473353 35.90130374 -86.52473353 35.90130374 -83.59155273 32.49975586 C-83.14404663 31.54081421 -83.14404663 31.54081421 -82.6875 30.5625 C-81.90375 30.294375 -81.12 30.02625 -80.3125 29.75 C-77.3080328 28.72317985 -77.3080328 28.72317985 -75.9375 25.0625 C-74.9765625 23.15625 -74.9765625 23.15625 -73.6875 21.5625 C-71.6484375 20.90625 -71.6484375 20.90625 -69.3125 20.5625 C-64.59429998 19.84251493 -63.20202869 18.29279249 -60.4140625 14.5703125 C-54.25288729 7.40550694 -45.07745274 2.24167908 -36 -0.0625 C-33.1868364 -0.78621844 -30.44451731 -1.51849423 -27.6875 -2.4375 C-25.42124965 -2.6908696 -23.14905981 -2.89297477 -20.875 -3.0625 C-19.67230469 -3.15789063 -18.46960938 -3.25328125 -17.23046875 -3.3515625 C-11.08141165 -3.50071273 -5.77770128 -1.96018946 0 0 Z " fill="#31C562" transform="translate(328.6875,20.4375)"/>
<path d="M0 0 C0.1959375 0.57105469 0.391875 1.14210938 0.59375 1.73046875 C2.58659851 7.13349337 5.02709481 11.73961955 8.1875 16.5625 C11.62901812 21.95144489 13 25.63112245 13 32 C13.99 32.33 14.98 32.66 16 33 C15.01 33.66 14.02 34.32 13 35 C12.15267272 37.69941216 12.15267272 37.69941216 11.625 40.875 C9.59505897 50.46435683 5.65131007 58.94065667 1.1875 67.6171875 C0.00835706 69.9832309 -1.03397604 72.37779094 -2.0625 74.8125 C-3.59360428 78.34966335 -5.49675636 81.04974856 -8 84 C-8 84.66 -8 85.32 -8 86 C-6.53498365 87.18086463 -6.53498365 87.18086463 -4.6875 88.3125 C-1.49304479 90.52404592 0.47611341 92.32474411 2 96 C2.41291057 100.12910567 2.33909307 101.4913604 0 105 C-1.32594105 105.36162029 -2.65938457 105.69728039 -4 106 C-6.25258919 110.50517837 -5.57607106 116.48541212 -5.77734375 121.49316406 C-5.84216044 122.99107786 -5.91791331 124.48856058 -6.00488281 125.98535156 C-6.13026645 128.15132997 -6.22102551 130.31643007 -6.3046875 132.484375 C-6.36640137 133.78084961 -6.42811523 135.07732422 -6.49169922 136.41308594 C-5.84101529 141.15978321 -4.25446421 142.55625865 -1 146 C-0.1028125 147.7015625 -0.1028125 147.7015625 0.8125 149.4375 C3.28667706 153.88903141 6.63518072 157.36226749 11 160 C13.93059398 160.55820838 15.99550278 160.37556215 19 160 C19.2475 159.2575 19.495 158.515 19.75 157.75 C21.09147301 154.79875938 22.60905526 153.15185026 25 151 C25.66 151.33 26.32 151.66 27 152 C26.21625 152.7425 25.4325 153.485 24.625 154.25 C22.37450497 156.60766146 21.33306544 158.1434312 20 161 C19.53078125 161.45890625 19.0615625 161.9178125 18.578125 162.390625 C13.97257474 167.08737427 12.72435106 172.67111781 12.27734375 179.02734375 C11.90799586 181.65439565 10.73742408 183.0453979 9 185 C8.92394531 185.65871094 8.84789062 186.31742188 8.76953125 186.99609375 C8.51558594 187.65738281 8.26164063 188.31867188 8 189 C5.41796875 189.984375 5.41796875 189.984375 2.1875 190.75 C-2.23145249 191.92868002 -2.23145249 191.92868002 -5.4375 194.92578125 C-6.01187751 196.32839062 -6.55858889 197.74271494 -7.07421875 199.16796875 C-8.73625078 202.45696885 -11.63604876 202.87868292 -15 204 C-17.27014539 205.80113577 -17.27014539 205.80113577 -17.01171875 208.3125 C-16.85123047 209.6428125 -16.85123047 209.6428125 -16.6875 211 C-16.53861328 212.3303125 -16.53861328 212.3303125 -16.38671875 213.6875 C-16.11328785 216.0180595 -16.11328785 216.0180595 -15 218 C-11.94657566 216.98219189 -10.22497522 216.25400428 -8.0625 213.8125 C-7.381875 213.214375 -6.70125 212.61625 -6 212 C-2.87109375 212.38671875 -2.87109375 212.38671875 0 213 C0.2046785 216.2073796 0.32805321 219.41307177 0.4375 222.625 C0.52547852 223.98044922 0.52547852 223.98044922 0.61523438 225.36328125 C0.78302296 231.93100585 0.78302296 231.93100585 -1.37841797 234.88183594 C-3.16807122 236.47493767 -4.95694877 237.75181766 -7 239 C-7.94488281 239.58652344 -8.88976562 240.17304688 -9.86328125 240.77734375 C-13.9230025 242.35977557 -17.88630712 242.97296099 -22.1875 243.5625 C-23.78612797 243.78612901 -25.3838527 244.01633828 -26.98046875 244.25390625 C-27.68067139 244.35002197 -28.38087402 244.4461377 -29.10229492 244.54516602 C-31.31375754 244.9596489 -31.31375754 244.9596489 -34 247 C-38.38036806 247.47271588 -42.78441848 247.37037248 -47.1875 247.375 C-48.39470703 247.39949219 -49.60191406 247.42398438 -50.84570312 247.44921875 C-58.02602876 247.47277367 -62.95431673 246.99866187 -69 243 C-70.3125 240.5625 -70.3125 240.5625 -70 238 C-67.47746809 234.58237613 -65.16109309 232.92041327 -61.1875 231.6875 C-56.59574249 230.18868104 -54.06329791 227.32623514 -50.8046875 223.87109375 C-47.5072282 220.45229936 -45.09000475 219.1315523 -40.375 218.5625 C-37.00564438 218.2960435 -37.00564438 218.2960435 -35 216.3125 C-33.63018879 213.14481157 -34.21498175 211.33632754 -35 208 C-36.22085451 202.30267893 -35.60399767 200.09949545 -33 195 C-32.59457301 191.92911143 -32.59457301 191.92911143 -34 189 C-35.93593442 187.30077372 -37.92320866 185.88418173 -40.08984375 184.4921875 C-42.23874077 182.81349903 -42.83519313 181.42431348 -44 179 C-45.60884906 177.47257036 -45.60884906 177.47257036 -47.4375 176.125 C-50.73634007 173.43276482 -52.1914319 170.87550307 -54 167 C-55.30144802 165.95884159 -56.62797869 164.94622159 -58 164 C-58 163.34 -58 162.68 -58 162 C-58.66 162 -59.32 162 -60 162 C-60 161.34 -60 160.68 -60 160 C-60.58652344 159.73703125 -61.17304688 159.4740625 -61.77734375 159.203125 C-67.46682907 156.1234036 -71.64115104 150.96650032 -74 145 C-74 144.34 -74 143.68 -74 143 C-74.88558594 142.86464844 -74.88558594 142.86464844 -75.7890625 142.7265625 C-78.56264741 141.81510173 -79.53093803 140.61731009 -81.375 138.375 C-81.97699219 137.653125 -82.57898438 136.93125 -83.19921875 136.1875 C-83.79347656 135.465625 -84.38773438 134.74375 -85 134 C-86.06097989 132.79033171 -87.12337689 131.58190418 -88.1875 130.375 C-89.97218404 128.30532714 -91.36468155 126.40896438 -92.8125 124.0625 C-94.86303204 121.19175515 -96.76725716 119.3854531 -99.4375 117.125 C-102.47922066 114.54593588 -104.51068675 112.42443664 -106.3125 108.875 C-108.98665845 104.08966383 -113.18066409 102.53899771 -118.0625 100.421875 C-122.41808954 98.31358432 -125.31488963 96.02766556 -128 92 C-128 89 -128 89 -125.5625 86.375 C-124.2940625 85.199375 -124.2940625 85.199375 -123 84 C-122.505 83.505 -122.505 83.505 -122 83 C-122.04459167 81.16323887 -122.15686713 79.32805381 -122.296875 77.49609375 C-122.36777344 76.36236328 -122.43867188 75.22863281 -122.51171875 74.06054688 C-122.66885375 71.67132209 -122.84295967 69.28314458 -123.03515625 66.89648438 C-123.4780585 59.19780111 -122.70071339 55.06258435 -118 49 C-117.690625 48.113125 -117.38125 47.22625 -117.0625 46.3125 C-115.23102016 42.32633798 -112.01997782 39.88092339 -108.07421875 38.16015625 C-106.72830877 37.67667402 -105.37651665 37.20927609 -104.01953125 36.7578125 C-101.92255329 35.97093876 -100.15743665 34.98065178 -98.25 33.8125 C-95 32 -95 32 -91 32 C-91 31.34 -91 30.68 -91 30 C-84.47438818 26.96974829 -78.67594349 25.73452911 -71.5625 25.5625 C-63.82139731 25.34254827 -57.95888712 23.49557699 -51 20 C-49.64997611 19.42762851 -48.29642137 18.86341407 -46.9375 18.3125 C-43.89752099 17.05230583 -43.89752099 17.05230583 -41 15 C-39.11816406 14.65283203 -39.11816406 14.65283203 -37.015625 14.5078125 C-35.85933594 14.40919922 -35.85933594 14.40919922 -34.6796875 14.30859375 C-33.07600555 14.18741521 -31.47182076 14.07269615 -29.8671875 13.96484375 C-24.20822563 13.4666295 -20.74970597 12.13376713 -16 9 C-15.17113281 8.47277344 -14.34226562 7.94554688 -13.48828125 7.40234375 C-12.77027344 6.91894531 -12.05226563 6.43554688 -11.3125 5.9375 C-10.22388672 5.20853516 -10.22388672 5.20853516 -9.11328125 4.46484375 C-6.96647203 3.01523851 -6.96647203 3.01523851 -4.91796875 1.31640625 C-3 0 -3 0 0 0 Z " fill="#F19101" transform="translate(335,92)"/>
<path d="M0 0 C1.27359375 -0.03996094 2.5471875 -0.07992187 3.859375 -0.12109375 C7.25 0.4375 7.25 0.4375 9.62890625 2.77734375 C11.25 5.4375 11.25 5.4375 12.4375 8.4375 C15.09738592 12.8400698 18.4749136 14.67788421 23.25 16.4375 C26.92175614 17.08017546 30.52566476 17.36092488 34.25 17.4375 C34.745 15.9525 34.745 15.9525 35.25 14.4375 C37.17578125 13.84765625 37.17578125 13.84765625 39.5625 13.5 C43.7192314 12.73047852 45.39439187 11.61039793 48.25 8.4375 C49.57 8.4375 50.89 8.4375 52.25 8.4375 C52.25 9.0975 52.25 9.7575 52.25 10.4375 C53.301875 10.685 54.35375 10.9325 55.4375 11.1875 C59.13550912 12.24617458 61.25646975 13.98824797 64.25 16.4375 C67.04689679 18.00920749 69.87608765 19.5005617 72.7265625 20.97265625 C76.15256031 22.96143207 77.86136337 24.21080808 79.07421875 28.0390625 C79.46222656 28.83054687 79.85023438 29.62203125 80.25 30.4375 C82.93977048 31.43844606 82.93977048 31.43844606 86.0625 31.8125 C92.92289187 33.3142365 92.92289187 33.3142365 95.3125 36.375 C97.19218871 39.58272965 97.81937203 42.81701677 98.5625 46.4375 C99.79250051 51.83733741 101.40021788 54.74543053 105.80078125 58.12109375 C109.52091335 60.12059059 113.36503677 60.85389298 117.4765625 61.703125 C122.56719908 63.05106821 125.13612844 65.98609161 128.3125 70.125 C131.62057434 74.07334679 135.08207183 74.47781111 140 75 C140.77859375 75.06316406 141.5571875 75.12632812 142.359375 75.19140625 C144.25 75.4375 144.25 75.4375 145.25 76.4375 C145.29080783 78.43708364 145.29254356 80.43795254 145.25 82.4375 C145.91 82.4375 146.57 82.4375 147.25 82.4375 C147.55436997 85.31244011 147.81913342 88.18228997 148.0625 91.0625 C148.15208984 91.87074219 148.24167969 92.67898437 148.33398438 93.51171875 C148.66782139 97.83402951 148.66552131 100.55172016 145.88671875 104.0234375 C143.25 106.4375 143.25 106.4375 141.25 106.4375 C141.91 108.0875 142.57 109.7375 143.25 111.4375 C138.19871982 110.16432897 133.74664222 108.99909838 129.5625 105.8125 C124.74040476 102.45284348 119.37941479 103.0142469 113.73828125 103.1640625 C110.25 102.4375 110.25 102.4375 108.97998047 100.97509766 C108.19309405 99.72611908 107.41113171 98.47402771 106.63354492 97.21923828 C104.10273953 93.96005039 100.54199471 92.90554803 96.75 91.5625 C95.95770996 91.26569336 95.16541992 90.96888672 94.34912109 90.66308594 C88.51686645 88.59384201 83.06980408 87.67098938 76.8515625 87.703125 C74.25 87.4375 74.25 87.4375 72.4453125 86.00390625 C69.07038196 83.59581524 65.55948728 83.51390631 61.5 83.125 C60.66178711 83.04161377 59.82357422 82.95822754 58.95996094 82.87231445 C50.05064245 82.12762737 40.18537126 82.05879342 32 86.00390625 C27.18459833 88.20027496 22.19379084 87.79713147 17 87.6875 C16.00742188 87.68234375 15.01484375 87.6771875 13.9921875 87.671875 C6.71651786 87.59300595 6.71651786 87.59300595 3.25 86.4375 C1.85546875 84.109375 1.85546875 84.109375 0.4375 81.1875 C-2.05567906 76.39813381 -4.49873491 73.80308486 -8.75 70.4375 C-10.39694188 68.15742717 -11.89085348 65.82645918 -13.35546875 63.42578125 C-16.51957827 58.91448784 -21.11330627 58.53923543 -26.15625 57.4140625 C-29.2347608 56.25498464 -30.24072845 55.34233086 -31.75 52.4375 C-31.796875 50.140625 -31.796875 50.140625 -31.5 47.6875 C-31.34580577 43.31866357 -32.06134871 41.42499718 -35 38.1875 C-35.60328125 37.60484375 -36.2065625 37.0221875 -36.828125 36.421875 C-41.96684971 31.11603729 -43.77297943 25.74526813 -45.4375 18.75 C-45.85751386 17.05845484 -46.27806408 15.36704274 -46.69921875 13.67578125 C-46.87799561 12.93368408 -47.05677246 12.19158691 -47.2409668 11.42700195 C-47.67166628 9.74365897 -48.20053247 8.08590259 -48.75 6.4375 C-38.78240342 4.62209581 -29.05626426 3.20132208 -18.9296875 2.6875 C-16.32813198 2.48295509 -14.21975009 2.13818458 -11.75 1.375 C-7.88566243 0.26357548 -3.99730897 0.10707078 0 0 Z " fill="#63C594" transform="translate(65.75,74.5625)"/>
<path d="M0 0 C1.28777344 0.01160156 2.57554687 0.02320312 3.90234375 0.03515625 C5.83787109 0.04869141 5.83787109 0.04869141 7.8125 0.0625 C8.81152344 0.07410156 9.81054688 0.08570312 10.83984375 0.09765625 C10.8241333 0.67209473 10.80842285 1.2465332 10.79223633 1.83837891 C10.72948862 4.46636934 10.69072869 7.09420162 10.65234375 9.72265625 C10.62720703 10.62628906 10.60207031 11.52992187 10.57617188 12.4609375 C10.47161125 17.89844081 10.47161125 17.89844081 12.33984375 22.91015625 C14.82405196 28.1890987 14.14877841 33.72474914 14.02734375 39.47265625 C14.00704102 41.29216797 14.00704102 41.29216797 13.98632812 43.1484375 C13.95108957 46.13196831 13.901819 49.11458083 13.83984375 52.09765625 C7.25390625 56.03515625 7.25390625 56.03515625 3.52734375 56.59765625 C0.79997185 56.78651877 0.79997185 56.78651877 -0.265625 58.6171875 C-1.27119826 61.40556751 -1.5739233 64.10160693 -1.89477539 67.03735352 C-2.72235719 74.04705506 -3.51018978 78.4751118 -9.22265625 83.16015625 C-10.11082031 83.84078125 -10.99898438 84.52140625 -11.9140625 85.22265625 C-14.49540094 87.37751268 -15.45023831 89.23961565 -15.9453125 92.58984375 C-16.01621094 93.41742188 -16.08710938 94.245 -16.16015625 95.09765625 C-16.38434964 97.10529793 -16.60947028 99.11286676 -16.84765625 101.11889648 C-17.01118541 102.53588307 -17.15898062 103.95479651 -17.2890625 105.37524414 C-17.92535659 111.45465123 -19.66126144 114.66393078 -24.03515625 118.84765625 C-27.10611695 121.05874795 -28.47484493 121.82799932 -32.16015625 122.09765625 C-33.86171875 122.31421875 -33.86171875 122.31421875 -35.59765625 122.53515625 C-39.89501392 122.00741057 -41.0167061 120.81059101 -43.703125 117.60546875 C-45.10014761 115.97992551 -45.10014761 115.97992551 -47.16796875 115.16015625 C-49.68536933 113.81754261 -50.42482526 112.42522379 -51.84765625 109.97265625 C-54.6893385 105.46491156 -58.01273505 102.45914692 -62.08203125 99.0703125 C-64.14437642 97.11263523 -65.19542948 95.48421784 -66.47265625 92.97265625 C-69.1468147 88.18732008 -73.34082034 86.63665396 -78.22265625 84.51953125 C-82.57824579 82.41124057 -85.47504588 80.12532181 -88.16015625 76.09765625 C-88.16015625 73.09765625 -88.16015625 73.09765625 -85.72265625 70.47265625 C-84.45421875 69.29703125 -84.45421875 69.29703125 -83.16015625 68.09765625 C-82.66515625 67.60265625 -82.66515625 67.60265625 -82.16015625 67.09765625 C-82.20474792 65.26089512 -82.31702338 63.42571006 -82.45703125 61.59375 C-82.52792969 60.46001953 -82.59882813 59.32628906 -82.671875 58.15820312 C-82.82901 55.76897834 -83.00311592 53.38080083 -83.1953125 50.99414062 C-83.63821475 43.29545736 -82.86086964 39.1602406 -78.16015625 33.09765625 C-77.85078125 32.21078125 -77.54140625 31.32390625 -77.22265625 30.41015625 C-75.39117641 26.42399423 -72.18013407 23.97857964 -68.234375 22.2578125 C-66.88846502 21.77433027 -65.5366729 21.30693234 -64.1796875 20.85546875 C-62.08270954 20.06859501 -60.3175929 19.07830803 -58.41015625 17.91015625 C-55.16015625 16.09765625 -55.16015625 16.09765625 -51.16015625 16.09765625 C-51.16015625 15.43765625 -51.16015625 14.77765625 -51.16015625 14.09765625 C-44.63454443 11.06740454 -38.83609974 9.83218536 -31.72265625 9.66015625 C-23.98168582 9.44020828 -18.11872841 7.59302532 -11.16015625 4.09765625 C-9.76853374 3.50434752 -8.37333875 2.9192479 -6.97265625 2.34765625 C-1.81674874 0.0561418 -1.81674874 0.0561418 0 0 Z " fill="#FBC900" transform="translate(295.16015625,107.90234375)"/>
<path d="M0 0 C3.93254008 -0.09895097 7.86459746 -0.1715042 11.7980957 -0.21972656 C13.79339014 -0.24971281 15.78833582 -0.30053786 17.78320312 -0.3515625 C19.03681641 -0.36445312 20.29042969 -0.37734375 21.58203125 -0.390625 C23.31803589 -0.4220459 23.31803589 -0.4220459 25.08911133 -0.45410156 C28 0 28 0 29.71118164 1.99291992 C30.1364917 2.65525635 30.56180176 3.31759277 31 4 C34.11539003 4.59329358 34.11539003 4.59329358 37.625 4.5625 C43.6770446 4.84182514 48.44837266 5.64860775 54 8 C55.39412109 8.54333984 55.39412109 8.54333984 56.81640625 9.09765625 C63.47773219 11.85620801 67.69914754 14.39829508 71 21 C71.29351688 24.38900661 71.27801485 27.78726427 71.3125 31.1875 C71.35600586 32.58838867 71.35600586 32.58838867 71.40039062 34.01757812 C71.45813267 40.32922749 70.59088696 43.80453652 67 49 C66.59007812 49.81726563 66.18015625 50.63453125 65.7578125 51.4765625 C62.51583638 56.13059933 57.91942261 59.62568535 53.62890625 63.296875 C49.26144084 67.19347111 49.26144084 67.19347111 47.02734375 72.50390625 C47.01832031 73.65761719 47.00929688 74.81132812 47 76 C46.92136719 77.23878906 46.84273438 78.47757812 46.76171875 79.75390625 C46.72498047 81.63916016 46.72498047 81.63916016 46.6875 83.5625 C46.65011719 84.82191406 46.61273438 86.08132812 46.57421875 87.37890625 C47.07571747 91.64394585 48.49483359 93.5675068 51 97 C53.58807572 103.06280701 55.93072667 109.35195237 55 116 C53.64184747 119.27191292 52.50104494 121.49895506 50 124 C47.2057738 124.30609677 44.43804084 124.37864594 41.62890625 124.4609375 C38.30832891 125.14182854 37.87280704 126.29600332 36 129 C28.43578027 130.48804323 20.68315544 130.09836188 13 130 C13.03299013 122.54423164 15.01950802 117.25333772 18.625 110.76171875 C19.94238424 108.11572257 20.57609297 105.90906198 21 103 C20.37351562 102.93683594 19.74703125 102.87367188 19.1015625 102.80859375 C18.40804687 102.54175781 17.71453125 102.27492188 17 102 C16.0234375 99.78515625 16.0234375 99.78515625 15.375 97.0625 C14.47941667 93.10799572 14.47941667 93.10799572 12 90 C11.76399747 85.83062202 12.01670789 82.05607995 13 78 C12.154375 78.12375 11.30875 78.2475 10.4375 78.375 C5.60410855 77.84772093 3.23347903 75.49609662 0 72 C-1.05287814 70.36622358 -2.0727001 68.70818403 -3 67 C-3.66 66.67 -4.32 66.34 -5 66 C-5.185625 64.783125 -5.37125 63.56625 -5.5625 62.3125 C-6.49241144 57.53336499 -8.74376626 53.97148261 -11.4375 50 C-19.6545902 37.82683502 -19.6545902 37.82683502 -18.64453125 31.921875 C-18 30 -18 30 -16.5625 27.375 C-14.8174738 23.60574341 -14.16764348 20.15384275 -13.52734375 16.07421875 C-13.35332031 15.38972656 -13.17929687 14.70523438 -13 14 C-12.34 13.67 -11.68 13.34 -11 13 C-10.27306096 11.02111039 -9.60183749 9.02045442 -9 7 C-8.05125 6.9175 -7.1025 6.835 -6.125 6.75 C-2.92113898 6.35242912 -2.92113898 6.35242912 -1.6875 4.0625 C-1.460625 3.381875 -1.23375 2.70125 -1 2 C-0.67 1.34 -0.34 0.68 0 0 Z " fill="#FDCA65" transform="translate(353,58)"/>
<path d="M0 0 C4.01472242 2.11888128 6.25030774 4.42540006 9 8 C12.18762365 10.12508244 14.26512223 10.5020163 18 11 C17.96519531 11.81984375 17.93039062 12.6396875 17.89453125 13.484375 C17.85392578 15.10085937 17.85392578 15.10085937 17.8125 16.75 C17.77769531 17.81734375 17.74289062 18.8846875 17.70703125 19.984375 C18.03736784 23.38463964 18.89127134 24.41788327 21 27 C21.6408587 29.68084404 21.7698714 32.23845677 22 35 C23.32 35.33 24.64 35.66 26 36 C25.68131783 41.84250638 24.50338946 45.46656265 21.25390625 50.3359375 C19.37241644 54.05664083 19.37241644 54.05664083 18 63 C25.59 62.67 33.18 62.34 41 62 C41.33 61.01 41.66 60.02 42 59 C44.88211302 58.03929566 46.69850044 57.89418117 49.6875 57.9375 C50.89986328 57.95103516 50.89986328 57.95103516 52.13671875 57.96484375 C52.75160156 57.97644531 53.36648438 57.98804688 54 58 C54.17015625 58.90621094 54.3403125 59.81242187 54.515625 60.74609375 C56.40595746 71.36554734 56.40595746 71.36554734 61 81 C63.04080109 82.2480611 63.04080109 82.2480611 65 83 C65 83.66 65 84.32 65 85 C65.96421875 85.02578125 66.9284375 85.0515625 67.921875 85.078125 C69.18515625 85.13484375 70.4484375 85.1915625 71.75 85.25 C73.00296875 85.29640625 74.2559375 85.3428125 75.546875 85.390625 C79.45066454 86.07952904 80.67298275 86.85168254 83 90 C83.75 93.25 83.75 93.25 84 96 C82.046875 96.390625 80.09375 96.78125 78.140625 97.171875 C75.39465914 98.23418296 74.02870982 99.88856609 72 102 C62.40503384 108.91857142 49.14872476 108.27117805 37.85986328 106.70263672 C36.91989502 106.54819092 36.91989502 106.54819092 35.9609375 106.390625 C34.98382813 106.26171875 34.00671875 106.1328125 33 106 C31.33333333 107.33333333 31.33333333 107.33333333 30 109 C29.21625 109.0825 28.4325 109.165 27.625 109.25 C24.50222786 110.14222061 24.36821273 110.70773902 22.75 113.375 C20.16855706 117.40696803 17.56664518 118.05299085 13.08203125 119.2578125 C10.00040037 120.35633007 8.74448198 122.31618157 7 125 C5.625 126.8125 5.625 126.8125 4 128 C0.38200287 128.41044505 -1.44948254 128.34743023 -4.5625 126.3828125 C-10.2625526 121.10295609 -14.46109242 115.92239017 -18 109 C-18.52932129 108.15187744 -18.52932129 108.15187744 -19.06933594 107.28662109 C-20.35048928 104.13885555 -20.1573019 101.54213541 -20.046875 98.15234375 C-20.02659241 97.49923721 -20.00630981 96.84613068 -19.9854126 96.17323303 C-19.93997257 94.79719194 -19.88922485 93.42131711 -19.83349609 92.0456543 C-19.750157 89.94146414 -19.68836772 87.83740722 -19.62890625 85.73242188 C-19.58201694 84.39318346 -19.53388217 83.05398795 -19.484375 81.71484375 C-19.44022461 80.49917725 -19.39607422 79.28351074 -19.35058594 78.03100586 C-19 75 -19 75 -17 72 C-15.67405895 71.63837971 -14.34061543 71.30271961 -13 71 C-11.58999336 68.17998673 -11.75451549 66.12992745 -12 63 C-14.06217598 58.02651676 -17.64214456 55.87782906 -22 53 C-21.00818536 50.10720729 -20.05063316 48.06026782 -18.0703125 45.703125 C-15.86491596 42.82362612 -14.81744451 40.34992098 -13.625 36.9375 C-11.96020883 32.3850155 -10.1178696 28.10948285 -7.875 23.8125 C-5.22412007 18.65347983 -3.41730528 13.61290437 -2 8 C-1.79503906 7.20851562 -1.59007812 6.41703125 -1.37890625 5.6015625 C-0.90483878 3.73798693 -0.45006879 1.8695165 0 0 Z " fill="#FD98CA" transform="translate(348,125)"/>
<path d="M0 0 C0.969375 0.309375 1.93875 0.61875 2.9375 0.9375 C4 3.3125 4 3.3125 4.9375 5.9375 C6.59282623 6.95616229 8.26010138 7.95560813 9.9375 8.9375 C10.97539581 10.58083504 11.97317924 12.24993867 12.9375 13.9375 C15.51665059 16.86518445 17.56158067 18.74954034 21.0625 20.5 C25.00577475 22.47163737 26.40596165 24.60389123 28.02734375 28.671875 C30.59776756 37.81642422 30.59776756 37.81642422 28.25 42.625 C26.90275909 44.86114214 26.29094262 45.76077869 23.9375 46.9375 C23.13723239 48.26258079 22.39578937 49.62355766 21.6875 51 C15.29615842 62.73307868 15.29615842 62.73307868 10 65.4375 C1.0857569 66.89288663 -6.59894905 64.87733386 -14.0625 59.9375 C-15.32174746 57.30216769 -15.54186602 55.30446581 -15.73828125 52.40625 C-16.29633238 48.15699319 -18.81822877 45.57487523 -22.0625 42.9375 C-23.71112161 42.20830198 -25.36377648 41.48141658 -27.05859375 40.8671875 C-32.46367293 38.35956792 -38.0296093 34.42784383 -40.3359375 28.8671875 C-41.37085306 24.69414087 -41.71736174 21.53372548 -40.0625 17.5 C-35.28371976 11.37718782 -27.91673393 4.41101377 -20.0625 2.9375 C-16.46907147 2.67333898 -12.87602277 2.4938857 -9.27734375 2.31640625 C-5.48053761 1.86890905 -3.82619921 -0.0780857 0 0 Z " fill="#BBBBBB" transform="translate(462.0625,266.0625)"/>
<path d="M0 0 C1 3 1 3 0 8 C7.59 7.67 15.18 7.34 23 7 C23.33 6.01 23.66 5.02 24 4 C26.88211302 3.03929566 28.69850044 2.89418117 31.6875 2.9375 C32.89986328 2.95103516 32.89986328 2.95103516 34.13671875 2.96484375 C35.05904297 2.98224609 35.05904297 2.98224609 36 3 C36.17015625 3.90621094 36.3403125 4.81242188 36.515625 5.74609375 C38.40595746 16.36554734 38.40595746 16.36554734 43 26 C45.04080109 27.2480611 45.04080109 27.2480611 47 28 C47 28.66 47 29.32 47 30 C48.44632812 30.03867188 48.44632812 30.03867188 49.921875 30.078125 C51.81679688 30.16320312 51.81679688 30.16320312 53.75 30.25 C55.62945312 30.31960937 55.62945312 30.31960937 57.546875 30.390625 C61.45066454 31.07952904 62.67298275 31.85168254 65 35 C65.75 38.25 65.75 38.25 66 41 C64.046875 41.390625 62.09375 41.78125 60.140625 42.171875 C57.39465914 43.23418296 56.02870982 44.88856609 54 47 C44.40503384 53.91857142 31.14872476 53.27117805 19.85986328 51.70263672 C19.23321777 51.59967285 18.60657227 51.49670898 17.9609375 51.390625 C16.98382813 51.26171875 16.00671875 51.1328125 15 51 C13.33333333 52.33333333 13.33333333 52.33333333 12 54 C11.21625 54.0825 10.4325 54.165 9.625 54.25 C5.57732839 55.4064776 4.12836062 58.53122504 2 62 C1.34 61.67 0.68 61.34 0 61 C4.93654267 53.4726477 4.93654267 53.4726477 9.375 51.5 C10.24125 51.335 11.1075 51.17 12 51 C12.94607807 48.25038489 12.94607807 48.25038489 13 45 C10.8971941 42.31273442 10.8971941 42.31273442 8 40 C2.51419221 34.77542115 -0.32488371 31.19210891 -0.546875 23.45703125 C-0.58683594 22.21888672 -0.62679688 20.98074219 -0.66796875 19.70507812 C-0.69503906 18.42052734 -0.72210938 17.13597656 -0.75 15.8125 C-0.79253906 14.51634766 -0.83507812 13.22019531 -0.87890625 11.88476562 C-1.14922532 2.29845063 -1.14922532 2.29845063 0 0 Z " fill="#6594F6" transform="translate(366,180)"/>
<path d="M0 0 C3.41448232 3.01277852 5.59333385 5.88658084 7.8125 9.875 C10.73733374 14.87190266 13.90845938 19.07567649 19 22 C21.92706491 22.54445405 24.00161949 22.37479756 27 22 C27.2475 21.2575 27.495 20.515 27.75 19.75 C29.09147301 16.79875938 30.60905526 15.15185026 33 13 C33.66 13.33 34.32 13.66 35 14 C34.21625 14.7425 33.4325 15.485 32.625 16.25 C30.37450497 18.60766146 29.33306544 20.1434312 28 23 C27.53078125 23.45890625 27.0615625 23.9178125 26.578125 24.390625 C21.97257474 29.08737427 20.72435106 34.67111781 20.27734375 41.02734375 C19.90799586 43.65439565 18.73742408 45.0453979 17 47 C16.92394531 47.65871094 16.84789062 48.31742187 16.76953125 48.99609375 C16.51558594 49.65738281 16.26164062 50.31867188 16 51 C13.41796875 51.984375 13.41796875 51.984375 10.1875 52.75 C5.76854751 53.92868002 5.76854751 53.92868002 2.5625 56.92578125 C1.98812249 58.32839062 1.44141111 59.74271494 0.92578125 61.16796875 C-0.73625078 64.45696885 -3.63604876 64.87868292 -7 66 C-9.5654594 68.5654594 -9.54046087 70.47686668 -10 74 C-10.66 74 -11.32 74 -12 74 C-12.03867187 73.00419922 -12.03867187 73.00419922 -12.078125 71.98828125 C-12.45210362 66.16611408 -13.18382132 63.51002935 -17 59 C-17.63057781 56.70289511 -18.05259215 54.44023595 -18.41015625 52.0859375 C-18.83247213 49.90706058 -18.83247213 49.90706058 -20.546875 48.55078125 C-22 47 -22 47 -22.29296875 44.51953125 C-22.25816406 43.62621094 -22.22335937 42.73289062 -22.1875 41.8125 C-22.16042969 40.91144531 -22.13335937 40.01039063 -22.10546875 39.08203125 C-22.07066406 38.39496094 -22.03585937 37.70789063 -22 37 C-22.66 37 -23.32 37 -24 37 C-25.75328507 33.97159851 -26.25093193 31.80125633 -26.1875 28.3125 C-26.18105469 27.52488281 -26.17460937 26.73726563 -26.16796875 25.92578125 C-26 24 -26 24 -25 23 C-24.76924918 21.65252916 -24.58846937 20.29622435 -24.4375 18.9375 C-24.293125 17.638125 -24.14875 16.33875 -24 15 C-22.741875 14.7525 -21.48375 14.505 -20.1875 14.25 C-16.3338085 13.30005157 -15.27214204 12.26002988 -13 9 C-10.68020619 7.96898053 -8.34570085 6.97063483 -6 6 C-2.4135376 3.50330495 -2.4135376 3.50330495 0 0 Z " fill="#ED315E" transform="translate(327,230)"/>
<path d="M0 0 C1.17175781 0.13277344 2.34351563 0.26554688 3.55078125 0.40234375 C12.02684507 1.35696111 20.4992642 2.28848467 29 3 C29 3.33 29 3.66 29 4 C25.64585201 4.02929977 22.29173747 4.0468989 18.9375 4.0625 C17.99455078 4.07087891 17.05160156 4.07925781 16.08007812 4.08789062 C11.96207209 4.10223908 7.98695987 4.08587319 3.91796875 3.41015625 C2.95503906 3.27480469 1.99210937 3.13945312 1 3 C-0.66666667 4.33333333 -0.66666667 4.33333333 -2 6 C-3.175625 6.12375 -3.175625 6.12375 -4.375 6.25 C-8.42267161 7.4064776 -9.87163938 10.53122504 -12 14 C-12.66 13.67 -13.32 13.34 -14 13 C-10.53855994 7.72191765 -8.35604348 4.58901087 -2 3 C-1.34 2.01 -0.68 1.02 0 0 Z " fill="#1F1E2F" transform="translate(380,228)"/>
<path d="M0 0 C0.66 0.33 1.32 0.66 2 1 C0.71034824 2.37562854 -0.62689293 3.70766393 -2 5 C-2.66 5 -3.32 5 -4 5 C-4.38091797 5.87591797 -4.38091797 5.87591797 -4.76953125 6.76953125 C-6.94943709 10.72104311 -10.29535528 13.48325766 -14 16 C-16.32387947 16.39387788 -18.65793749 16.73486085 -21 17 C-23.91886589 19.41636938 -23.91886589 19.41636938 -26 22 C-25.38722388 19.03824877 -24.74627478 17.61941217 -23 15 C-21.046875 14.515625 -21.046875 14.515625 -18.75 14.25 C-14.03498068 13.34760396 -12.35299664 11.651949 -9.55078125 7.88671875 C-6.88257536 4.6405136 -3.43387162 2.37930699 0 0 Z " fill="#15572B" transform="translate(278,27)"/>
<path d="M0 0 C1 2 1 2 0.1015625 5.0859375 C-2.26025095 10.27440369 -6.52234034 13.79314296 -10.625 17.625 C-12.18883721 19.08662563 -13.74394528 20.55766145 -15.2890625 22.0390625 C-15.97693848 22.68053223 -16.66481445 23.32200195 -17.37353516 23.98291016 C-19.26110664 26.32381613 -19.64843287 28.04593958 -20 31 C-20.33 31 -20.66 31 -21 31 C-21.35936262 26.92722359 -21.5423094 24.74678671 -19.09375 21.375 C-18.2378125 20.59125 -17.381875 19.8075 -16.5 19 C-15.13681641 17.72189453 -15.13681641 17.72189453 -13.74609375 16.41796875 C-11.3840927 14.33819827 -8.98535967 12.32027011 -6.5625 10.3125 C-2.93114719 7.23135216 -1.47061659 4.50376331 0 0 Z " fill="#BD5F4B" transform="translate(421,103)"/>
<path d="M0 0 C0.66 0.99 1.32 1.98 2 3 C0.783125 2.896875 -0.43375 2.79375 -1.6875 2.6875 C-5.24355055 2.68123935 -5.80060194 2.83306209 -8.6875 5.25 C-9.450625 6.1575 -10.21375 7.065 -11 8 C-13.625 10.375 -13.625 10.375 -16 12 C-16.99 11.67 -17.98 11.34 -19 11 C-17.03719785 9.26611026 -15.06921159 7.53920705 -13.08984375 5.82421875 C-11.49385552 4.4310851 -9.92741567 3.00402884 -8.375 1.5625 C-5.35174005 -0.42648681 -3.54919959 -0.55209771 0 0 Z " fill="#104221" transform="translate(72,39)"/>
<path d="M0 0 C0 0.99 0 1.98 0 3 C-2 5 -2 5 -5.3125 5.3125 C-9.72163689 6.13454247 -11.1542144 7.63679883 -14 11 C-13.38722388 8.03824877 -12.74627478 6.61941217 -11 4 C-8.90625 3.33984375 -8.90625 3.33984375 -6.5 2.9375 C-2.83095369 2.36114657 -2.83095369 2.36114657 0 0 Z " fill="#0B2F17" transform="translate(266,38)"/>
<path d="M0 0 C0.33 0.66 0.66 1.32 1 2 C0.34 2 -0.32 2 -1 2 C-1.2475 2.639375 -1.495 3.27875 -1.75 3.9375 C-3 6 -3 6 -5.125 6.75 C-6.053125 6.87375 -6.053125 6.87375 -7 7 C-6.3125 4.625 -6.3125 4.625 -5 2 C-2.375 0.6875 -2.375 0.6875 0 0 Z " fill="#15562B" transform="translate(251,49)"/>
<path d="M0 0 C0.66 0.33 1.32 0.66 2 1 C-0.31 3.31 -2.62 5.62 -5 8 C-5.33 6.68 -5.66 5.36 -6 4 C-5.195625 3.525625 -4.39125 3.05125 -3.5625 2.5625 C-1.15246512 1.23099846 -1.15246512 1.23099846 0 0 Z " fill="#228944" transform="translate(13,30)"/>
</svg>
